<svg width="22" height="18" viewBox="0 0 22 18" fill="none" xmlns="http://www.w3.org/2000/svg">
<path fill-rule="evenodd" clip-rule="evenodd" d="M13 10.4142L11.7071 11.7071C11.3166 12.0976 10.6834 12.0976 10.2929 11.7071L9 10.4142L3.411 16.0032L18.5859 16.0001L13 10.4142ZM20 3.41417L14.4142 9L19.9997 14.5855L20 3.41417ZM7.58579 9L2.00026 3.41448L1.99996 14.5858L7.58579 9ZM11 9.61882L18.5935 1.99678L3.40958 1.99989L11 9.61882ZM2.00091 0H19.9991C21.1042 0 22 0.892623 22 1.99509V16.0049C22 17.1068 21.1035 18 19.9991 18H2.00091C0.895836 18 0 17.1074 0 16.0049V1.99509C0 0.893232 0.896546 0 2.00091 0Z" fill="#141416"/>
</svg>
