<svg width="150" height="170" viewBox="0 0 150 170" fill="none" xmlns="http://www.w3.org/2000/svg">
<g opacity="0.2">
<path fill-rule="evenodd" clip-rule="evenodd" d="M105 10C107.761 10 110 7.76142 110 5C110 2.23858 107.761 0 105 0C102.239 0 100 2.23858 100 5C100 7.76142 102.239 10 105 10Z" fill="#141416"/>
<path fill-rule="evenodd" clip-rule="evenodd" d="M105 30C107.761 30 110 27.7614 110 25C110 22.2386 107.761 20 105 20C102.239 20 100 22.2386 100 25C100 27.7614 102.239 30 105 30Z" fill="#141416"/>
<path fill-rule="evenodd" clip-rule="evenodd" d="M85 10C87.7614 10 90 7.76142 90 5C90 2.23858 87.7614 0 85 0C82.2386 0 80 2.23858 80 5C80 7.76142 82.2386 10 85 10Z" fill="#141416"/>
<path fill-rule="evenodd" clip-rule="evenodd" d="M85 30C87.7614 30 90 27.7614 90 25C90 22.2386 87.7614 20 85 20C82.2386 20 80 22.2386 80 25C80 27.7614 82.2386 30 85 30Z" fill="#141416"/>
<path fill-rule="evenodd" clip-rule="evenodd" d="M85 50C87.7614 50 90 47.7614 90 45C90 42.2386 87.7614 40 85 40C82.2386 40 80 42.2386 80 45C80 47.7614 82.2386 50 85 50Z" fill="#141416"/>
<path fill-rule="evenodd" clip-rule="evenodd" d="M105 50C107.761 50 110 47.7614 110 45C110 42.2386 107.761 40 105 40C102.239 40 100 42.2386 100 45C100 47.7614 102.239 50 105 50Z" fill="#141416"/>
<path fill-rule="evenodd" clip-rule="evenodd" d="M105 70C107.761 70 110 67.7614 110 65C110 62.2386 107.761 60 105 60C102.239 60 100 62.2386 100 65C100 67.7614 102.239 70 105 70Z" fill="#141416"/>
<path fill-rule="evenodd" clip-rule="evenodd" d="M105 90C107.761 90 110 87.7614 110 85C110 82.2386 107.761 80 105 80C102.239 80 100 82.2386 100 85C100 87.7614 102.239 90 105 90Z" fill="#141416"/>
<path fill-rule="evenodd" clip-rule="evenodd" d="M85 70C87.7614 70 90 67.7614 90 65C90 62.2386 87.7614 60 85 60C82.2386 60 80 62.2386 80 65C80 67.7614 82.2386 70 85 70Z" fill="#141416"/>
<path fill-rule="evenodd" clip-rule="evenodd" d="M85 90C87.7614 90 90 87.7614 90 85C90 82.2386 87.7614 80 85 80C82.2386 80 80 82.2386 80 85C80 87.7614 82.2386 90 85 90Z" fill="#141416"/>
<path fill-rule="evenodd" clip-rule="evenodd" d="M85 110C87.7614 110 90 107.761 90 105C90 102.239 87.7614 100 85 100C82.2386 100 80 102.239 80 105C80 107.761 82.2386 110 85 110Z" fill="#141416"/>
<path fill-rule="evenodd" clip-rule="evenodd" d="M105 110C107.761 110 110 107.761 110 105C110 102.239 107.761 100 105 100C102.239 100 100 102.239 100 105C100 107.761 102.239 110 105 110Z" fill="#141416"/>
<path fill-rule="evenodd" clip-rule="evenodd" d="M105 130C107.761 130 110 127.761 110 125C110 122.239 107.761 120 105 120C102.239 120 100 122.239 100 125C100 127.761 102.239 130 105 130Z" fill="#141416"/>
<path fill-rule="evenodd" clip-rule="evenodd" d="M105 150C107.761 150 110 147.761 110 145C110 142.239 107.761 140 105 140C102.239 140 100 142.239 100 145C100 147.761 102.239 150 105 150Z" fill="#141416"/>
<path fill-rule="evenodd" clip-rule="evenodd" d="M85 130C87.7614 130 90 127.761 90 125C90 122.239 87.7614 120 85 120C82.2386 120 80 122.239 80 125C80 127.761 82.2386 130 85 130Z" fill="#141416"/>
<path fill-rule="evenodd" clip-rule="evenodd" d="M85 150C87.7614 150 90 147.761 90 145C90 142.239 87.7614 140 85 140C82.2386 140 80 142.239 80 145C80 147.761 82.2386 150 85 150Z" fill="#141416"/>
<path fill-rule="evenodd" clip-rule="evenodd" d="M85 170C87.7614 170 90 167.761 90 165C90 162.239 87.7614 160 85 160C82.2386 160 80 162.239 80 165C80 167.761 82.2386 170 85 170Z" fill="#141416"/>
<path fill-rule="evenodd" clip-rule="evenodd" d="M105 170C107.761 170 110 167.761 110 165C110 162.239 107.761 160 105 160C102.239 160 100 162.239 100 165C100 167.761 102.239 170 105 170Z" fill="#141416"/>
<path fill-rule="evenodd" clip-rule="evenodd" d="M25 10C27.7614 10 30 7.76142 30 5C30 2.23858 27.7614 0 25 0C22.2386 0 20 2.23858 20 5C20 7.76142 22.2386 10 25 10Z" fill="#141416"/>
<path fill-rule="evenodd" clip-rule="evenodd" d="M25 30C27.7614 30 30 27.7614 30 25C30 22.2386 27.7614 20 25 20C22.2386 20 20 22.2386 20 25C20 27.7614 22.2386 30 25 30Z" fill="#141416"/>
<path fill-rule="evenodd" clip-rule="evenodd" d="M5 10C7.76142 10 10 7.76142 10 5C10 2.23858 7.76142 0 5 0C2.23858 0 0 2.23858 0 5C0 7.76142 2.23858 10 5 10Z" fill="#141416"/>
<path fill-rule="evenodd" clip-rule="evenodd" d="M5 30C7.76142 30 10 27.7614 10 25C10 22.2386 7.76142 20 5 20C2.23858 20 0 22.2386 0 25C0 27.7614 2.23858 30 5 30Z" fill="#141416"/>
<path fill-rule="evenodd" clip-rule="evenodd" d="M145 10C147.761 10 150 7.76142 150 5C150 2.23858 147.761 0 145 0C142.239 0 140 2.23858 140 5C140 7.76142 142.239 10 145 10Z" fill="#141416"/>
<path fill-rule="evenodd" clip-rule="evenodd" d="M145 30C147.761 30 150 27.7614 150 25C150 22.2386 147.761 20 145 20C142.239 20 140 22.2386 140 25C140 27.7614 142.239 30 145 30Z" fill="#141416"/>
<path fill-rule="evenodd" clip-rule="evenodd" d="M125 10C127.761 10 130 7.76142 130 5C130 2.23858 127.761 0 125 0C122.239 0 120 2.23858 120 5C120 7.76142 122.239 10 125 10Z" fill="#141416"/>
<path fill-rule="evenodd" clip-rule="evenodd" d="M125 30C127.761 30 130 27.7614 130 25C130 22.2386 127.761 20 125 20C122.239 20 120 22.2386 120 25C120 27.7614 122.239 30 125 30Z" fill="#141416"/>
<path fill-rule="evenodd" clip-rule="evenodd" d="M125 50C127.761 50 130 47.7614 130 45C130 42.2386 127.761 40 125 40C122.239 40 120 42.2386 120 45C120 47.7614 122.239 50 125 50Z" fill="#141416"/>
<path fill-rule="evenodd" clip-rule="evenodd" d="M145 50C147.761 50 150 47.7614 150 45C150 42.2386 147.761 40 145 40C142.239 40 140 42.2386 140 45C140 47.7614 142.239 50 145 50Z" fill="#141416"/>
<path fill-rule="evenodd" clip-rule="evenodd" d="M145 70C147.761 70 150 67.7614 150 65C150 62.2386 147.761 60 145 60C142.239 60 140 62.2386 140 65C140 67.7614 142.239 70 145 70Z" fill="#141416"/>
<path fill-rule="evenodd" clip-rule="evenodd" d="M145 90C147.761 90 150 87.7614 150 85C150 82.2386 147.761 80 145 80C142.239 80 140 82.2386 140 85C140 87.7614 142.239 90 145 90Z" fill="#141416"/>
<path fill-rule="evenodd" clip-rule="evenodd" d="M125 70C127.761 70 130 67.7614 130 65C130 62.2386 127.761 60 125 60C122.239 60 120 62.2386 120 65C120 67.7614 122.239 70 125 70Z" fill="#141416"/>
<path fill-rule="evenodd" clip-rule="evenodd" d="M125 90C127.761 90 130 87.7614 130 85C130 82.2386 127.761 80 125 80C122.239 80 120 82.2386 120 85C120 87.7614 122.239 90 125 90Z" fill="#141416"/>
<path fill-rule="evenodd" clip-rule="evenodd" d="M125 110C127.761 110 130 107.761 130 105C130 102.239 127.761 100 125 100C122.239 100 120 102.239 120 105C120 107.761 122.239 110 125 110Z" fill="#141416"/>
<path fill-rule="evenodd" clip-rule="evenodd" d="M145 110C147.761 110 150 107.761 150 105C150 102.239 147.761 100 145 100C142.239 100 140 102.239 140 105C140 107.761 142.239 110 145 110Z" fill="#141416"/>
<path fill-rule="evenodd" clip-rule="evenodd" d="M145 130C147.761 130 150 127.761 150 125C150 122.239 147.761 120 145 120C142.239 120 140 122.239 140 125C140 127.761 142.239 130 145 130Z" fill="#141416"/>
<path fill-rule="evenodd" clip-rule="evenodd" d="M145 150C147.761 150 150 147.761 150 145C150 142.239 147.761 140 145 140C142.239 140 140 142.239 140 145C140 147.761 142.239 150 145 150Z" fill="#141416"/>
<path fill-rule="evenodd" clip-rule="evenodd" d="M125 130C127.761 130 130 127.761 130 125C130 122.239 127.761 120 125 120C122.239 120 120 122.239 120 125C120 127.761 122.239 130 125 130Z" fill="#141416"/>
<path fill-rule="evenodd" clip-rule="evenodd" d="M125 150C127.761 150 130 147.761 130 145C130 142.239 127.761 140 125 140C122.239 140 120 142.239 120 145C120 147.761 122.239 150 125 150Z" fill="#141416"/>
<path fill-rule="evenodd" clip-rule="evenodd" d="M125 170C127.761 170 130 167.761 130 165C130 162.239 127.761 160 125 160C122.239 160 120 162.239 120 165C120 167.761 122.239 170 125 170Z" fill="#141416"/>
<path fill-rule="evenodd" clip-rule="evenodd" d="M145 170C147.761 170 150 167.761 150 165C150 162.239 147.761 160 145 160C142.239 160 140 162.239 140 165C140 167.761 142.239 170 145 170Z" fill="#141416"/>
<path fill-rule="evenodd" clip-rule="evenodd" d="M65 10C67.7614 10 70 7.76142 70 5C70 2.23858 67.7614 0 65 0C62.2386 0 60 2.23858 60 5C60 7.76142 62.2386 10 65 10Z" fill="#141416"/>
<path fill-rule="evenodd" clip-rule="evenodd" d="M65 30C67.7614 30 70 27.7614 70 25C70 22.2386 67.7614 20 65 20C62.2386 20 60 22.2386 60 25C60 27.7614 62.2386 30 65 30Z" fill="#141416"/>
<path fill-rule="evenodd" clip-rule="evenodd" d="M45 10C47.7614 10 50 7.76142 50 5C50 2.23858 47.7614 0 45 0C42.2386 0 40 2.23858 40 5C40 7.76142 42.2386 10 45 10Z" fill="#141416"/>
<path fill-rule="evenodd" clip-rule="evenodd" d="M45 30C47.7614 30 50 27.7614 50 25C50 22.2386 47.7614 20 45 20C42.2386 20 40 22.2386 40 25C40 27.7614 42.2386 30 45 30Z" fill="#141416"/>
<path fill-rule="evenodd" clip-rule="evenodd" d="M25 50C27.7614 50 30 47.7614 30 45C30 42.2386 27.7614 40 25 40C22.2386 40 20 42.2386 20 45C20 47.7614 22.2386 50 25 50Z" fill="#141416"/>
<path fill-rule="evenodd" clip-rule="evenodd" d="M5 50C7.76142 50 10 47.7614 10 45C10 42.2386 7.76142 40 5 40C2.23858 40 0 42.2386 0 45C0 47.7614 2.23858 50 5 50Z" fill="#141416"/>
<path fill-rule="evenodd" clip-rule="evenodd" d="M5 70C7.76142 70 10 67.7614 10 65C10 62.2386 7.76142 60 5 60C2.23858 60 0 62.2386 0 65C0 67.7614 2.23858 70 5 70Z" fill="#141416"/>
<path fill-rule="evenodd" clip-rule="evenodd" d="M25 70C27.7614 70 30 67.7614 30 65C30 62.2386 27.7614 60 25 60C22.2386 60 20 62.2386 20 65C20 67.7614 22.2386 70 25 70Z" fill="#141416"/>
<path fill-rule="evenodd" clip-rule="evenodd" d="M25 90C27.7614 90 30 87.7614 30 85C30 82.2386 27.7614 80 25 80C22.2386 80 20 82.2386 20 85C20 87.7614 22.2386 90 25 90Z" fill="#141416"/>
<path fill-rule="evenodd" clip-rule="evenodd" d="M25 110C27.7614 110 30 107.761 30 105C30 102.239 27.7614 100 25 100C22.2386 100 20 102.239 20 105C20 107.761 22.2386 110 25 110Z" fill="#141416"/>
<path fill-rule="evenodd" clip-rule="evenodd" d="M5 90C7.76142 90 10 87.7614 10 85C10 82.2386 7.76142 80 5 80C2.23858 80 0 82.2386 0 85C0 87.7614 2.23858 90 5 90Z" fill="#141416"/>
<path fill-rule="evenodd" clip-rule="evenodd" d="M5 110C7.76142 110 10 107.761 10 105C10 102.239 7.76142 100 5 100C2.23858 100 0 102.239 0 105C0 107.761 2.23858 110 5 110Z" fill="#141416"/>
<path fill-rule="evenodd" clip-rule="evenodd" d="M5 130C7.76142 130 10 127.761 10 125C10 122.239 7.76142 120 5 120C2.23858 120 0 122.239 0 125C0 127.761 2.23858 130 5 130Z" fill="#141416"/>
<path fill-rule="evenodd" clip-rule="evenodd" d="M25 130C27.7614 130 30 127.761 30 125C30 122.239 27.7614 120 25 120C22.2386 120 20 122.239 20 125C20 127.761 22.2386 130 25 130Z" fill="#141416"/>
<path fill-rule="evenodd" clip-rule="evenodd" d="M25 150C27.7614 150 30 147.761 30 145C30 142.239 27.7614 140 25 140C22.2386 140 20 142.239 20 145C20 147.761 22.2386 150 25 150Z" fill="#141416"/>
<path fill-rule="evenodd" clip-rule="evenodd" d="M25 170C27.7614 170 30 167.761 30 165C30 162.239 27.7614 160 25 160C22.2386 160 20 162.239 20 165C20 167.761 22.2386 170 25 170Z" fill="#141416"/>
<path fill-rule="evenodd" clip-rule="evenodd" d="M5 150C7.76142 150 10 147.761 10 145C10 142.239 7.76142 140 5 140C2.23858 140 0 142.239 0 145C0 147.761 2.23858 150 5 150Z" fill="#141416"/>
<path fill-rule="evenodd" clip-rule="evenodd" d="M5 170C7.76142 170 10 167.761 10 165C10 162.239 7.76142 160 5 160C2.23858 160 0 162.239 0 165C0 167.761 2.23858 170 5 170Z" fill="#141416"/>
<path fill-rule="evenodd" clip-rule="evenodd" d="M65 50C67.7614 50 70 47.7614 70 45C70 42.2386 67.7614 40 65 40C62.2386 40 60 42.2386 60 45C60 47.7614 62.2386 50 65 50Z" fill="#141416"/>
<path fill-rule="evenodd" clip-rule="evenodd" d="M45 50C47.7614 50 50 47.7614 50 45C50 42.2386 47.7614 40 45 40C42.2386 40 40 42.2386 40 45C40 47.7614 42.2386 50 45 50Z" fill="#141416"/>
<path fill-rule="evenodd" clip-rule="evenodd" d="M45 70C47.7614 70 50 67.7614 50 65C50 62.2386 47.7614 60 45 60C42.2386 60 40 62.2386 40 65C40 67.7614 42.2386 70 45 70Z" fill="#141416"/>
<path fill-rule="evenodd" clip-rule="evenodd" d="M65 70C67.7614 70 70 67.7614 70 65C70 62.2386 67.7614 60 65 60C62.2386 60 60 62.2386 60 65C60 67.7614 62.2386 70 65 70Z" fill="#141416"/>
<path fill-rule="evenodd" clip-rule="evenodd" d="M65 90C67.7614 90 70 87.7614 70 85C70 82.2386 67.7614 80 65 80C62.2386 80 60 82.2386 60 85C60 87.7614 62.2386 90 65 90Z" fill="#141416"/>
<path fill-rule="evenodd" clip-rule="evenodd" d="M65 110C67.7614 110 70 107.761 70 105C70 102.239 67.7614 100 65 100C62.2386 100 60 102.239 60 105C60 107.761 62.2386 110 65 110Z" fill="#141416"/>
<path fill-rule="evenodd" clip-rule="evenodd" d="M45 90C47.7614 90 50 87.7614 50 85C50 82.2386 47.7614 80 45 80C42.2386 80 40 82.2386 40 85C40 87.7614 42.2386 90 45 90Z" fill="#141416"/>
<path fill-rule="evenodd" clip-rule="evenodd" d="M45 110C47.7614 110 50 107.761 50 105C50 102.239 47.7614 100 45 100C42.2386 100 40 102.239 40 105C40 107.761 42.2386 110 45 110Z" fill="#141416"/>
<path fill-rule="evenodd" clip-rule="evenodd" d="M45 130C47.7614 130 50 127.761 50 125C50 122.239 47.7614 120 45 120C42.2386 120 40 122.239 40 125C40 127.761 42.2386 130 45 130Z" fill="#141416"/>
<path fill-rule="evenodd" clip-rule="evenodd" d="M65 130C67.7614 130 70 127.761 70 125C70 122.239 67.7614 120 65 120C62.2386 120 60 122.239 60 125C60 127.761 62.2386 130 65 130Z" fill="#141416"/>
<path fill-rule="evenodd" clip-rule="evenodd" d="M65 150C67.7614 150 70 147.761 70 145C70 142.239 67.7614 140 65 140C62.2386 140 60 142.239 60 145C60 147.761 62.2386 150 65 150Z" fill="#141416"/>
<path fill-rule="evenodd" clip-rule="evenodd" d="M65 170C67.7614 170 70 167.761 70 165C70 162.239 67.7614 160 65 160C62.2386 160 60 162.239 60 165C60 167.761 62.2386 170 65 170Z" fill="#141416"/>
<path fill-rule="evenodd" clip-rule="evenodd" d="M45 150C47.7614 150 50 147.761 50 145C50 142.239 47.7614 140 45 140C42.2386 140 40 142.239 40 145C40 147.761 42.2386 150 45 150Z" fill="#141416"/>
<path fill-rule="evenodd" clip-rule="evenodd" d="M45 170C47.7614 170 50 167.761 50 165C50 162.239 47.7614 160 45 160C42.2386 160 40 162.239 40 165C40 167.761 42.2386 170 45 170Z" fill="#141416"/>
</g>
</svg>
