<svg width="536" height="476" viewBox="0 0 536 476" fill="none" xmlns="http://www.w3.org/2000/svg">
<path fill-rule="evenodd" clip-rule="evenodd" d="M471 10C473.761 10 476 7.76142 476 5C476 2.23858 473.761 0 471 0C468.239 0 466 2.23858 466 5C466 7.76142 468.239 10 471 10Z" fill="#141416"/>
<path fill-rule="evenodd" clip-rule="evenodd" d="M491 10C493.761 10 496 7.76142 496 5C496 2.23858 493.761 0 491 0C488.239 0 486 2.23858 486 5C486 7.76142 488.239 10 491 10Z" fill="#141416"/>
<path fill-rule="evenodd" clip-rule="evenodd" d="M491 30C493.761 30 496 27.7614 496 25C496 22.2386 493.761 20 491 20C488.239 20 486 22.2386 486 25C486 27.7614 488.239 30 491 30Z" fill="#141416"/>
<path fill-rule="evenodd" clip-rule="evenodd" d="M491 50C493.761 50 496 47.7614 496 45C496 42.2386 493.761 40 491 40C488.239 40 486 42.2386 486 45C486 47.7614 488.239 50 491 50Z" fill="#141416"/>
<path fill-rule="evenodd" clip-rule="evenodd" d="M471 30C473.761 30 476 27.7614 476 25C476 22.2386 473.761 20 471 20C468.239 20 466 22.2386 466 25C466 27.7614 468.239 30 471 30Z" fill="#141416"/>
<path fill-rule="evenodd" clip-rule="evenodd" d="M471 50C473.761 50 476 47.7614 476 45C476 42.2386 473.761 40 471 40C468.239 40 466 42.2386 466 45C466 47.7614 468.239 50 471 50Z" fill="#141416"/>
<path fill-rule="evenodd" clip-rule="evenodd" d="M471 70C473.761 70 476 67.7614 476 65C476 62.2386 473.761 60 471 60C468.239 60 466 62.2386 466 65C466 67.7614 468.239 70 471 70Z" fill="#141416"/>
<path fill-rule="evenodd" clip-rule="evenodd" d="M491 70C493.761 70 496 67.7614 496 65C496 62.2386 493.761 60 491 60C488.239 60 486 62.2386 486 65C486 67.7614 488.239 70 491 70Z" fill="#141416"/>
<path fill-rule="evenodd" clip-rule="evenodd" d="M491 90C493.761 90 496 87.7614 496 85C496 82.2386 493.761 80 491 80C488.239 80 486 82.2386 486 85C486 87.7614 488.239 90 491 90Z" fill="#141416"/>
<path fill-rule="evenodd" clip-rule="evenodd" d="M491 110C493.761 110 496 107.761 496 105C496 102.239 493.761 100 491 100C488.239 100 486 102.239 486 105C486 107.761 488.239 110 491 110Z" fill="#141416"/>
<path fill-rule="evenodd" clip-rule="evenodd" d="M471 90C473.761 90 476 87.7614 476 85C476 82.2386 473.761 80 471 80C468.239 80 466 82.2386 466 85C466 87.7614 468.239 90 471 90Z" fill="#141416"/>
<path fill-rule="evenodd" clip-rule="evenodd" d="M471 110C473.761 110 476 107.761 476 105C476 102.239 473.761 100 471 100C468.239 100 466 102.239 466 105C466 107.761 468.239 110 471 110Z" fill="#141416"/>
<path fill-rule="evenodd" clip-rule="evenodd" d="M471 130C473.761 130 476 127.761 476 125C476 122.239 473.761 120 471 120C468.239 120 466 122.239 466 125C466 127.761 468.239 130 471 130Z" fill="#141416"/>
<path fill-rule="evenodd" clip-rule="evenodd" d="M491 130C493.761 130 496 127.761 496 125C496 122.239 493.761 120 491 120C488.239 120 486 122.239 486 125C486 127.761 488.239 130 491 130Z" fill="#141416"/>
<path fill-rule="evenodd" clip-rule="evenodd" d="M491 150C493.761 150 496 147.761 496 145C496 142.239 493.761 140 491 140C488.239 140 486 142.239 486 145C486 147.761 488.239 150 491 150Z" fill="#141416"/>
<path fill-rule="evenodd" clip-rule="evenodd" d="M491 170C493.761 170 496 167.761 496 165C496 162.239 493.761 160 491 160C488.239 160 486 162.239 486 165C486 167.761 488.239 170 491 170Z" fill="#141416"/>
<path fill-rule="evenodd" clip-rule="evenodd" d="M471 150C473.761 150 476 147.761 476 145C476 142.239 473.761 140 471 140C468.239 140 466 142.239 466 145C466 147.761 468.239 150 471 150Z" fill="#141416"/>
<path fill-rule="evenodd" clip-rule="evenodd" d="M471 170C473.761 170 476 167.761 476 165C476 162.239 473.761 160 471 160C468.239 160 466 162.239 466 165C466 167.761 468.239 170 471 170Z" fill="#141416"/>
<path fill-rule="evenodd" clip-rule="evenodd" d="M471 190C473.761 190 476 187.761 476 185C476 182.239 473.761 180 471 180C468.239 180 466 182.239 466 185C466 187.761 468.239 190 471 190Z" fill="#141416"/>
<path fill-rule="evenodd" clip-rule="evenodd" d="M491 190C493.761 190 496 187.761 496 185C496 182.239 493.761 180 491 180C488.239 180 486 182.239 486 185C486 187.761 488.239 190 491 190Z" fill="#141416"/>
<path fill-rule="evenodd" clip-rule="evenodd" d="M491 210C493.761 210 496 207.761 496 205C496 202.239 493.761 200 491 200C488.239 200 486 202.239 486 205C486 207.761 488.239 210 491 210Z" fill="#141416"/>
<path fill-rule="evenodd" clip-rule="evenodd" d="M491 230C493.761 230 496 227.761 496 225C496 222.239 493.761 220 491 220C488.239 220 486 222.239 486 225C486 227.761 488.239 230 491 230Z" fill="#141416"/>
<path fill-rule="evenodd" clip-rule="evenodd" d="M471 210C473.761 210 476 207.761 476 205C476 202.239 473.761 200 471 200C468.239 200 466 202.239 466 205C466 207.761 468.239 210 471 210Z" fill="#141416"/>
<path fill-rule="evenodd" clip-rule="evenodd" d="M471 230C473.761 230 476 227.761 476 225C476 222.239 473.761 220 471 220C468.239 220 466 222.239 466 225C466 227.761 468.239 230 471 230Z" fill="#141416"/>
<path fill-rule="evenodd" clip-rule="evenodd" d="M511 10C513.761 10 516 7.76142 516 5C516 2.23858 513.761 0 511 0C508.239 0 506 2.23858 506 5C506 7.76142 508.239 10 511 10Z" fill="#141416"/>
<path fill-rule="evenodd" clip-rule="evenodd" d="M531 10C533.761 10 536 7.76142 536 5C536 2.23858 533.761 0 531 0C528.239 0 526 2.23858 526 5C526 7.76142 528.239 10 531 10Z" fill="#141416"/>
<path fill-rule="evenodd" clip-rule="evenodd" d="M531 30C533.761 30 536 27.7614 536 25C536 22.2386 533.761 20 531 20C528.239 20 526 22.2386 526 25C526 27.7614 528.239 30 531 30Z" fill="#141416"/>
<path fill-rule="evenodd" clip-rule="evenodd" d="M531 50C533.761 50 536 47.7614 536 45C536 42.2386 533.761 40 531 40C528.239 40 526 42.2386 526 45C526 47.7614 528.239 50 531 50Z" fill="#141416"/>
<path fill-rule="evenodd" clip-rule="evenodd" d="M511 30C513.761 30 516 27.7614 516 25C516 22.2386 513.761 20 511 20C508.239 20 506 22.2386 506 25C506 27.7614 508.239 30 511 30Z" fill="#141416"/>
<path fill-rule="evenodd" clip-rule="evenodd" d="M511 50C513.761 50 516 47.7614 516 45C516 42.2386 513.761 40 511 40C508.239 40 506 42.2386 506 45C506 47.7614 508.239 50 511 50Z" fill="#141416"/>
<path fill-rule="evenodd" clip-rule="evenodd" d="M511 70C513.761 70 516 67.7614 516 65C516 62.2386 513.761 60 511 60C508.239 60 506 62.2386 506 65C506 67.7614 508.239 70 511 70Z" fill="#141416"/>
<path fill-rule="evenodd" clip-rule="evenodd" d="M531 70C533.761 70 536 67.7614 536 65C536 62.2386 533.761 60 531 60C528.239 60 526 62.2386 526 65C526 67.7614 528.239 70 531 70Z" fill="#141416"/>
<path fill-rule="evenodd" clip-rule="evenodd" d="M531 90C533.761 90 536 87.7614 536 85C536 82.2386 533.761 80 531 80C528.239 80 526 82.2386 526 85C526 87.7614 528.239 90 531 90Z" fill="#141416"/>
<path fill-rule="evenodd" clip-rule="evenodd" d="M531 110C533.761 110 536 107.761 536 105C536 102.239 533.761 100 531 100C528.239 100 526 102.239 526 105C526 107.761 528.239 110 531 110Z" fill="#141416"/>
<path fill-rule="evenodd" clip-rule="evenodd" d="M511 90C513.761 90 516 87.7614 516 85C516 82.2386 513.761 80 511 80C508.239 80 506 82.2386 506 85C506 87.7614 508.239 90 511 90Z" fill="#141416"/>
<path fill-rule="evenodd" clip-rule="evenodd" d="M511 110C513.761 110 516 107.761 516 105C516 102.239 513.761 100 511 100C508.239 100 506 102.239 506 105C506 107.761 508.239 110 511 110Z" fill="#141416"/>
<path fill-rule="evenodd" clip-rule="evenodd" d="M511 130C513.761 130 516 127.761 516 125C516 122.239 513.761 120 511 120C508.239 120 506 122.239 506 125C506 127.761 508.239 130 511 130Z" fill="#141416"/>
<path fill-rule="evenodd" clip-rule="evenodd" d="M531 130C533.761 130 536 127.761 536 125C536 122.239 533.761 120 531 120C528.239 120 526 122.239 526 125C526 127.761 528.239 130 531 130Z" fill="#141416"/>
<path fill-rule="evenodd" clip-rule="evenodd" d="M531 150C533.761 150 536 147.761 536 145C536 142.239 533.761 140 531 140C528.239 140 526 142.239 526 145C526 147.761 528.239 150 531 150Z" fill="#141416"/>
<path fill-rule="evenodd" clip-rule="evenodd" d="M531 170C533.761 170 536 167.761 536 165C536 162.239 533.761 160 531 160C528.239 160 526 162.239 526 165C526 167.761 528.239 170 531 170Z" fill="#141416"/>
<path fill-rule="evenodd" clip-rule="evenodd" d="M511 150C513.761 150 516 147.761 516 145C516 142.239 513.761 140 511 140C508.239 140 506 142.239 506 145C506 147.761 508.239 150 511 150Z" fill="#141416"/>
<path fill-rule="evenodd" clip-rule="evenodd" d="M511 170C513.761 170 516 167.761 516 165C516 162.239 513.761 160 511 160C508.239 160 506 162.239 506 165C506 167.761 508.239 170 511 170Z" fill="#141416"/>
<path fill-rule="evenodd" clip-rule="evenodd" d="M511 190C513.761 190 516 187.761 516 185C516 182.239 513.761 180 511 180C508.239 180 506 182.239 506 185C506 187.761 508.239 190 511 190Z" fill="#141416"/>
<path fill-rule="evenodd" clip-rule="evenodd" d="M531 190C533.761 190 536 187.761 536 185C536 182.239 533.761 180 531 180C528.239 180 526 182.239 526 185C526 187.761 528.239 190 531 190Z" fill="#141416"/>
<path fill-rule="evenodd" clip-rule="evenodd" d="M531 210C533.761 210 536 207.761 536 205C536 202.239 533.761 200 531 200C528.239 200 526 202.239 526 205C526 207.761 528.239 210 531 210Z" fill="#141416"/>
<path fill-rule="evenodd" clip-rule="evenodd" d="M531 230C533.761 230 536 227.761 536 225C536 222.239 533.761 220 531 220C528.239 220 526 222.239 526 225C526 227.761 528.239 230 531 230Z" fill="#141416"/>
<path fill-rule="evenodd" clip-rule="evenodd" d="M511 210C513.761 210 516 207.761 516 205C516 202.239 513.761 200 511 200C508.239 200 506 202.239 506 205C506 207.761 508.239 210 511 210Z" fill="#141416"/>
<path fill-rule="evenodd" clip-rule="evenodd" d="M511 230C513.761 230 516 227.761 516 225C516 222.239 513.761 220 511 220C508.239 220 506 222.239 506 225C506 227.761 508.239 230 511 230Z" fill="#141416"/>
<path fill-rule="evenodd" clip-rule="evenodd" d="M491 250C493.761 250 496 247.761 496 245C496 242.239 493.761 240 491 240C488.239 240 486 242.239 486 245C486 247.761 488.239 250 491 250Z" fill="#141416"/>
<path fill-rule="evenodd" clip-rule="evenodd" d="M471 250C473.761 250 476 247.761 476 245C476 242.239 473.761 240 471 240C468.239 240 466 242.239 466 245C466 247.761 468.239 250 471 250Z" fill="#141416"/>
<path fill-rule="evenodd" clip-rule="evenodd" d="M471 270C473.761 270 476 267.761 476 265C476 262.239 473.761 260 471 260C468.239 260 466 262.239 466 265C466 267.761 468.239 270 471 270Z" fill="#141416"/>
<path fill-rule="evenodd" clip-rule="evenodd" d="M491 270C493.761 270 496 267.761 496 265C496 262.239 493.761 260 491 260C488.239 260 486 262.239 486 265C486 267.761 488.239 270 491 270Z" fill="#141416"/>
<path fill-rule="evenodd" clip-rule="evenodd" d="M491 290C493.761 290 496 287.761 496 285C496 282.239 493.761 280 491 280C488.239 280 486 282.239 486 285C486 287.761 488.239 290 491 290Z" fill="#141416"/>
<path fill-rule="evenodd" clip-rule="evenodd" d="M491 310C493.761 310 496 307.761 496 305C496 302.239 493.761 300 491 300C488.239 300 486 302.239 486 305C486 307.761 488.239 310 491 310Z" fill="#141416"/>
<path fill-rule="evenodd" clip-rule="evenodd" d="M471 290C473.761 290 476 287.761 476 285C476 282.239 473.761 280 471 280C468.239 280 466 282.239 466 285C466 287.761 468.239 290 471 290Z" fill="#141416"/>
<path fill-rule="evenodd" clip-rule="evenodd" d="M471 310C473.761 310 476 307.761 476 305C476 302.239 473.761 300 471 300C468.239 300 466 302.239 466 305C466 307.761 468.239 310 471 310Z" fill="#141416"/>
<path fill-rule="evenodd" clip-rule="evenodd" d="M471 330C473.761 330 476 327.761 476 325C476 322.239 473.761 320 471 320C468.239 320 466 322.239 466 325C466 327.761 468.239 330 471 330Z" fill="#141416"/>
<path fill-rule="evenodd" clip-rule="evenodd" d="M491 330C493.761 330 496 327.761 496 325C496 322.239 493.761 320 491 320C488.239 320 486 322.239 486 325C486 327.761 488.239 330 491 330Z" fill="#141416"/>
<path fill-rule="evenodd" clip-rule="evenodd" d="M491 350C493.761 350 496 347.761 496 345C496 342.239 493.761 340 491 340C488.239 340 486 342.239 486 345C486 347.761 488.239 350 491 350Z" fill="#141416"/>
<path fill-rule="evenodd" clip-rule="evenodd" d="M491 370C493.761 370 496 367.761 496 365C496 362.239 493.761 360 491 360C488.239 360 486 362.239 486 365C486 367.761 488.239 370 491 370Z" fill="#141416"/>
<path fill-rule="evenodd" clip-rule="evenodd" d="M471 350C473.761 350 476 347.761 476 345C476 342.239 473.761 340 471 340C468.239 340 466 342.239 466 345C466 347.761 468.239 350 471 350Z" fill="#141416"/>
<path fill-rule="evenodd" clip-rule="evenodd" d="M471 370C473.761 370 476 367.761 476 365C476 362.239 473.761 360 471 360C468.239 360 466 362.239 466 365C466 367.761 468.239 370 471 370Z" fill="#141416"/>
<path fill-rule="evenodd" clip-rule="evenodd" d="M531 250C533.761 250 536 247.761 536 245C536 242.239 533.761 240 531 240C528.239 240 526 242.239 526 245C526 247.761 528.239 250 531 250Z" fill="#141416"/>
<path fill-rule="evenodd" clip-rule="evenodd" d="M511 250C513.761 250 516 247.761 516 245C516 242.239 513.761 240 511 240C508.239 240 506 242.239 506 245C506 247.761 508.239 250 511 250Z" fill="#141416"/>
<path fill-rule="evenodd" clip-rule="evenodd" d="M511 270C513.761 270 516 267.761 516 265C516 262.239 513.761 260 511 260C508.239 260 506 262.239 506 265C506 267.761 508.239 270 511 270Z" fill="#141416"/>
<path fill-rule="evenodd" clip-rule="evenodd" d="M531 270C533.761 270 536 267.761 536 265C536 262.239 533.761 260 531 260C528.239 260 526 262.239 526 265C526 267.761 528.239 270 531 270Z" fill="#141416"/>
<path fill-rule="evenodd" clip-rule="evenodd" d="M531 290C533.761 290 536 287.761 536 285C536 282.239 533.761 280 531 280C528.239 280 526 282.239 526 285C526 287.761 528.239 290 531 290Z" fill="#141416"/>
<path fill-rule="evenodd" clip-rule="evenodd" d="M531 310C533.761 310 536 307.761 536 305C536 302.239 533.761 300 531 300C528.239 300 526 302.239 526 305C526 307.761 528.239 310 531 310Z" fill="#141416"/>
<path fill-rule="evenodd" clip-rule="evenodd" d="M511 290C513.761 290 516 287.761 516 285C516 282.239 513.761 280 511 280C508.239 280 506 282.239 506 285C506 287.761 508.239 290 511 290Z" fill="#141416"/>
<path fill-rule="evenodd" clip-rule="evenodd" d="M511 310C513.761 310 516 307.761 516 305C516 302.239 513.761 300 511 300C508.239 300 506 302.239 506 305C506 307.761 508.239 310 511 310Z" fill="#141416"/>
<path fill-rule="evenodd" clip-rule="evenodd" d="M511 330C513.761 330 516 327.761 516 325C516 322.239 513.761 320 511 320C508.239 320 506 322.239 506 325C506 327.761 508.239 330 511 330Z" fill="#141416"/>
<path fill-rule="evenodd" clip-rule="evenodd" d="M531 330C533.761 330 536 327.761 536 325C536 322.239 533.761 320 531 320C528.239 320 526 322.239 526 325C526 327.761 528.239 330 531 330Z" fill="#141416"/>
<path fill-rule="evenodd" clip-rule="evenodd" d="M531 350C533.761 350 536 347.761 536 345C536 342.239 533.761 340 531 340C528.239 340 526 342.239 526 345C526 347.761 528.239 350 531 350Z" fill="#141416"/>
<path fill-rule="evenodd" clip-rule="evenodd" d="M531 370C533.761 370 536 367.761 536 365C536 362.239 533.761 360 531 360C528.239 360 526 362.239 526 365C526 367.761 528.239 370 531 370Z" fill="#141416"/>
<path fill-rule="evenodd" clip-rule="evenodd" d="M511 350C513.761 350 516 347.761 516 345C516 342.239 513.761 340 511 340C508.239 340 506 342.239 506 345C506 347.761 508.239 350 511 350Z" fill="#141416"/>
<path fill-rule="evenodd" clip-rule="evenodd" d="M511 370C513.761 370 516 367.761 516 365C516 362.239 513.761 360 511 360C508.239 360 506 362.239 506 365C506 367.761 508.239 370 511 370Z" fill="#141416"/>
<path fill-rule="evenodd" clip-rule="evenodd" d="M25 356C27.7614 356 30 353.761 30 351C30 348.239 27.7614 346 25 346C22.2386 346 20 348.239 20 351C20 353.761 22.2386 356 25 356Z" fill="#141416"/>
<path fill-rule="evenodd" clip-rule="evenodd" d="M5 356C7.76142 356 10 353.761 10 351C10 348.239 7.76142 346 5 346C2.23858 346 0 348.239 0 351C0 353.761 2.23858 356 5 356Z" fill="#141416"/>
<path fill-rule="evenodd" clip-rule="evenodd" d="M5 376C7.76142 376 10 373.761 10 371C10 368.239 7.76142 366 5 366C2.23858 366 0 368.239 0 371C0 373.761 2.23858 376 5 376Z" fill="#141416"/>
<path fill-rule="evenodd" clip-rule="evenodd" d="M25 376C27.7614 376 30 373.761 30 371C30 368.239 27.7614 366 25 366C22.2386 366 20 368.239 20 371C20 373.761 22.2386 376 25 376Z" fill="#141416"/>
<path fill-rule="evenodd" clip-rule="evenodd" d="M25 396C27.7614 396 30 393.761 30 391C30 388.239 27.7614 386 25 386C22.2386 386 20 388.239 20 391C20 393.761 22.2386 396 25 396Z" fill="#141416"/>
<path fill-rule="evenodd" clip-rule="evenodd" d="M25 416C27.7614 416 30 413.761 30 411C30 408.239 27.7614 406 25 406C22.2386 406 20 408.239 20 411C20 413.761 22.2386 416 25 416Z" fill="#141416"/>
<path fill-rule="evenodd" clip-rule="evenodd" d="M5 396C7.76142 396 10 393.761 10 391C10 388.239 7.76142 386 5 386C2.23858 386 0 388.239 0 391C0 393.761 2.23858 396 5 396Z" fill="#141416"/>
<path fill-rule="evenodd" clip-rule="evenodd" d="M5 416C7.76142 416 10 413.761 10 411C10 408.239 7.76142 406 5 406C2.23858 406 0 408.239 0 411C0 413.761 2.23858 416 5 416Z" fill="#141416"/>
<path fill-rule="evenodd" clip-rule="evenodd" d="M5 436C7.76142 436 10 433.761 10 431C10 428.239 7.76142 426 5 426C2.23858 426 0 428.239 0 431C0 433.761 2.23858 436 5 436Z" fill="#141416"/>
<path fill-rule="evenodd" clip-rule="evenodd" d="M25 436C27.7614 436 30 433.761 30 431C30 428.239 27.7614 426 25 426C22.2386 426 20 428.239 20 431C20 433.761 22.2386 436 25 436Z" fill="#141416"/>
<path fill-rule="evenodd" clip-rule="evenodd" d="M25 456C27.7614 456 30 453.761 30 451C30 448.239 27.7614 446 25 446C22.2386 446 20 448.239 20 451C20 453.761 22.2386 456 25 456Z" fill="#141416"/>
<path fill-rule="evenodd" clip-rule="evenodd" d="M25 476C27.7614 476 30 473.761 30 471C30 468.239 27.7614 466 25 466C22.2386 466 20 468.239 20 471C20 473.761 22.2386 476 25 476Z" fill="#141416"/>
<path fill-rule="evenodd" clip-rule="evenodd" d="M5 456C7.76142 456 10 453.761 10 451C10 448.239 7.76142 446 5 446C2.23858 446 0 448.239 0 451C0 453.761 2.23858 456 5 456Z" fill="#141416"/>
<path fill-rule="evenodd" clip-rule="evenodd" d="M5 476C7.76142 476 10 473.761 10 471C10 468.239 7.76142 466 5 466C2.23858 466 0 468.239 0 471C0 473.761 2.23858 476 5 476Z" fill="#141416"/>
<path fill-rule="evenodd" clip-rule="evenodd" d="M65 356C67.7614 356 70 353.761 70 351C70 348.239 67.7614 346 65 346C62.2386 346 60 348.239 60 351C60 353.761 62.2386 356 65 356Z" fill="#141416"/>
<path fill-rule="evenodd" clip-rule="evenodd" d="M45 356C47.7614 356 50 353.761 50 351C50 348.239 47.7614 346 45 346C42.2386 346 40 348.239 40 351C40 353.761 42.2386 356 45 356Z" fill="#141416"/>
<path fill-rule="evenodd" clip-rule="evenodd" d="M45 376C47.7614 376 50 373.761 50 371C50 368.239 47.7614 366 45 366C42.2386 366 40 368.239 40 371C40 373.761 42.2386 376 45 376Z" fill="#141416"/>
<path fill-rule="evenodd" clip-rule="evenodd" d="M65 376C67.7614 376 70 373.761 70 371C70 368.239 67.7614 366 65 366C62.2386 366 60 368.239 60 371C60 373.761 62.2386 376 65 376Z" fill="#141416"/>
<path fill-rule="evenodd" clip-rule="evenodd" d="M65 396C67.7614 396 70 393.761 70 391C70 388.239 67.7614 386 65 386C62.2386 386 60 388.239 60 391C60 393.761 62.2386 396 65 396Z" fill="#141416"/>
<path fill-rule="evenodd" clip-rule="evenodd" d="M65 416C67.7614 416 70 413.761 70 411C70 408.239 67.7614 406 65 406C62.2386 406 60 408.239 60 411C60 413.761 62.2386 416 65 416Z" fill="#141416"/>
<path fill-rule="evenodd" clip-rule="evenodd" d="M45 396C47.7614 396 50 393.761 50 391C50 388.239 47.7614 386 45 386C42.2386 386 40 388.239 40 391C40 393.761 42.2386 396 45 396Z" fill="#141416"/>
<path fill-rule="evenodd" clip-rule="evenodd" d="M45 416C47.7614 416 50 413.761 50 411C50 408.239 47.7614 406 45 406C42.2386 406 40 408.239 40 411C40 413.761 42.2386 416 45 416Z" fill="#141416"/>
<path fill-rule="evenodd" clip-rule="evenodd" d="M45 436C47.7614 436 50 433.761 50 431C50 428.239 47.7614 426 45 426C42.2386 426 40 428.239 40 431C40 433.761 42.2386 436 45 436Z" fill="#141416"/>
<path fill-rule="evenodd" clip-rule="evenodd" d="M65 436C67.7614 436 70 433.761 70 431C70 428.239 67.7614 426 65 426C62.2386 426 60 428.239 60 431C60 433.761 62.2386 436 65 436Z" fill="#141416"/>
<path fill-rule="evenodd" clip-rule="evenodd" d="M65 456C67.7614 456 70 453.761 70 451C70 448.239 67.7614 446 65 446C62.2386 446 60 448.239 60 451C60 453.761 62.2386 456 65 456Z" fill="#141416"/>
<path fill-rule="evenodd" clip-rule="evenodd" d="M65 476C67.7614 476 70 473.761 70 471C70 468.239 67.7614 466 65 466C62.2386 466 60 468.239 60 471C60 473.761 62.2386 476 65 476Z" fill="#141416"/>
<path fill-rule="evenodd" clip-rule="evenodd" d="M45 456C47.7614 456 50 453.761 50 451C50 448.239 47.7614 446 45 446C42.2386 446 40 448.239 40 451C40 453.761 42.2386 456 45 456Z" fill="#141416"/>
<path fill-rule="evenodd" clip-rule="evenodd" d="M45 476C47.7614 476 50 473.761 50 471C50 468.239 47.7614 466 45 466C42.2386 466 40 468.239 40 471C40 473.761 42.2386 476 45 476Z" fill="#141416"/>
</svg>
