<svg width="330" height="340" viewBox="0 0 330 340" fill="none" xmlns="http://www.w3.org/2000/svg">
<g opacity="0.1">
<path fill-rule="evenodd" clip-rule="evenodd" d="M285 180C287.761 180 290 177.761 290 175C290 172.239 287.761 170 285 170C282.239 170 280 172.239 280 175C280 177.761 282.239 180 285 180Z" fill="#141416"/>
<path fill-rule="evenodd" clip-rule="evenodd" d="M285 200C287.761 200 290 197.761 290 195C290 192.239 287.761 190 285 190C282.239 190 280 192.239 280 195C280 197.761 282.239 200 285 200Z" fill="#141416"/>
<path fill-rule="evenodd" clip-rule="evenodd" d="M265 180C267.761 180 270 177.761 270 175C270 172.239 267.761 170 265 170C262.239 170 260 172.239 260 175C260 177.761 262.239 180 265 180Z" fill="#141416"/>
<path fill-rule="evenodd" clip-rule="evenodd" d="M265 200C267.761 200 270 197.761 270 195C270 192.239 267.761 190 265 190C262.239 190 260 192.239 260 195C260 197.761 262.239 200 265 200Z" fill="#141416"/>
<path fill-rule="evenodd" clip-rule="evenodd" d="M265 220C267.761 220 270 217.761 270 215C270 212.239 267.761 210 265 210C262.239 210 260 212.239 260 215C260 217.761 262.239 220 265 220Z" fill="#141416"/>
<path fill-rule="evenodd" clip-rule="evenodd" d="M285 220C287.761 220 290 217.761 290 215C290 212.239 287.761 210 285 210C282.239 210 280 212.239 280 215C280 217.761 282.239 220 285 220Z" fill="#141416"/>
<path fill-rule="evenodd" clip-rule="evenodd" d="M285 240C287.761 240 290 237.761 290 235C290 232.239 287.761 230 285 230C282.239 230 280 232.239 280 235C280 237.761 282.239 240 285 240Z" fill="#141416"/>
<path fill-rule="evenodd" clip-rule="evenodd" d="M285 260C287.761 260 290 257.761 290 255C290 252.239 287.761 250 285 250C282.239 250 280 252.239 280 255C280 257.761 282.239 260 285 260Z" fill="#141416"/>
<path fill-rule="evenodd" clip-rule="evenodd" d="M265 240C267.761 240 270 237.761 270 235C270 232.239 267.761 230 265 230C262.239 230 260 232.239 260 235C260 237.761 262.239 240 265 240Z" fill="#141416"/>
<path fill-rule="evenodd" clip-rule="evenodd" d="M265 260C267.761 260 270 257.761 270 255C270 252.239 267.761 250 265 250C262.239 250 260 252.239 260 255C260 257.761 262.239 260 265 260Z" fill="#141416"/>
<path fill-rule="evenodd" clip-rule="evenodd" d="M265 280C267.761 280 270 277.761 270 275C270 272.239 267.761 270 265 270C262.239 270 260 272.239 260 275C260 277.761 262.239 280 265 280Z" fill="#141416"/>
<path fill-rule="evenodd" clip-rule="evenodd" d="M285 280C287.761 280 290 277.761 290 275C290 272.239 287.761 270 285 270C282.239 270 280 272.239 280 275C280 277.761 282.239 280 285 280Z" fill="#141416"/>
<path fill-rule="evenodd" clip-rule="evenodd" d="M285 300C287.761 300 290 297.761 290 295C290 292.239 287.761 290 285 290C282.239 290 280 292.239 280 295C280 297.761 282.239 300 285 300Z" fill="#141416"/>
<path fill-rule="evenodd" clip-rule="evenodd" d="M285 320C287.761 320 290 317.761 290 315C290 312.239 287.761 310 285 310C282.239 310 280 312.239 280 315C280 317.761 282.239 320 285 320Z" fill="#141416"/>
<path fill-rule="evenodd" clip-rule="evenodd" d="M265 300C267.761 300 270 297.761 270 295C270 292.239 267.761 290 265 290C262.239 290 260 292.239 260 295C260 297.761 262.239 300 265 300Z" fill="#141416"/>
<path fill-rule="evenodd" clip-rule="evenodd" d="M265 320C267.761 320 270 317.761 270 315C270 312.239 267.761 310 265 310C262.239 310 260 312.239 260 315C260 317.761 262.239 320 265 320Z" fill="#141416"/>
<path fill-rule="evenodd" clip-rule="evenodd" d="M265 340C267.761 340 270 337.761 270 335C270 332.239 267.761 330 265 330C262.239 330 260 332.239 260 335C260 337.761 262.239 340 265 340Z" fill="#141416"/>
<path fill-rule="evenodd" clip-rule="evenodd" d="M285 340C287.761 340 290 337.761 290 335C290 332.239 287.761 330 285 330C282.239 330 280 332.239 280 335C280 337.761 282.239 340 285 340Z" fill="#141416"/>
<path fill-rule="evenodd" clip-rule="evenodd" d="M205 180C207.761 180 210 177.761 210 175C210 172.239 207.761 170 205 170C202.239 170 200 172.239 200 175C200 177.761 202.239 180 205 180Z" fill="#141416"/>
<path fill-rule="evenodd" clip-rule="evenodd" d="M205 200C207.761 200 210 197.761 210 195C210 192.239 207.761 190 205 190C202.239 190 200 192.239 200 195C200 197.761 202.239 200 205 200Z" fill="#141416"/>
<path fill-rule="evenodd" clip-rule="evenodd" d="M185 180C187.761 180 190 177.761 190 175C190 172.239 187.761 170 185 170C182.239 170 180 172.239 180 175C180 177.761 182.239 180 185 180Z" fill="#141416"/>
<path fill-rule="evenodd" clip-rule="evenodd" d="M185 200C187.761 200 190 197.761 190 195C190 192.239 187.761 190 185 190C182.239 190 180 192.239 180 195C180 197.761 182.239 200 185 200Z" fill="#141416"/>
<path fill-rule="evenodd" clip-rule="evenodd" d="M325 180C327.761 180 330 177.761 330 175C330 172.239 327.761 170 325 170C322.239 170 320 172.239 320 175C320 177.761 322.239 180 325 180Z" fill="#141416"/>
<path fill-rule="evenodd" clip-rule="evenodd" d="M325 200C327.761 200 330 197.761 330 195C330 192.239 327.761 190 325 190C322.239 190 320 192.239 320 195C320 197.761 322.239 200 325 200Z" fill="#141416"/>
<path fill-rule="evenodd" clip-rule="evenodd" d="M305 180C307.761 180 310 177.761 310 175C310 172.239 307.761 170 305 170C302.239 170 300 172.239 300 175C300 177.761 302.239 180 305 180Z" fill="#141416"/>
<path fill-rule="evenodd" clip-rule="evenodd" d="M305 200C307.761 200 310 197.761 310 195C310 192.239 307.761 190 305 190C302.239 190 300 192.239 300 195C300 197.761 302.239 200 305 200Z" fill="#141416"/>
<path fill-rule="evenodd" clip-rule="evenodd" d="M305 220C307.761 220 310 217.761 310 215C310 212.239 307.761 210 305 210C302.239 210 300 212.239 300 215C300 217.761 302.239 220 305 220Z" fill="#141416"/>
<path fill-rule="evenodd" clip-rule="evenodd" d="M325 220C327.761 220 330 217.761 330 215C330 212.239 327.761 210 325 210C322.239 210 320 212.239 320 215C320 217.761 322.239 220 325 220Z" fill="#141416"/>
<path fill-rule="evenodd" clip-rule="evenodd" d="M325 240C327.761 240 330 237.761 330 235C330 232.239 327.761 230 325 230C322.239 230 320 232.239 320 235C320 237.761 322.239 240 325 240Z" fill="#141416"/>
<path fill-rule="evenodd" clip-rule="evenodd" d="M325 260C327.761 260 330 257.761 330 255C330 252.239 327.761 250 325 250C322.239 250 320 252.239 320 255C320 257.761 322.239 260 325 260Z" fill="#141416"/>
<path fill-rule="evenodd" clip-rule="evenodd" d="M305 240C307.761 240 310 237.761 310 235C310 232.239 307.761 230 305 230C302.239 230 300 232.239 300 235C300 237.761 302.239 240 305 240Z" fill="#141416"/>
<path fill-rule="evenodd" clip-rule="evenodd" d="M305 260C307.761 260 310 257.761 310 255C310 252.239 307.761 250 305 250C302.239 250 300 252.239 300 255C300 257.761 302.239 260 305 260Z" fill="#141416"/>
<path fill-rule="evenodd" clip-rule="evenodd" d="M305 280C307.761 280 310 277.761 310 275C310 272.239 307.761 270 305 270C302.239 270 300 272.239 300 275C300 277.761 302.239 280 305 280Z" fill="#141416"/>
<path fill-rule="evenodd" clip-rule="evenodd" d="M325 280C327.761 280 330 277.761 330 275C330 272.239 327.761 270 325 270C322.239 270 320 272.239 320 275C320 277.761 322.239 280 325 280Z" fill="#141416"/>
<path fill-rule="evenodd" clip-rule="evenodd" d="M325 300C327.761 300 330 297.761 330 295C330 292.239 327.761 290 325 290C322.239 290 320 292.239 320 295C320 297.761 322.239 300 325 300Z" fill="#141416"/>
<path fill-rule="evenodd" clip-rule="evenodd" d="M325 320C327.761 320 330 317.761 330 315C330 312.239 327.761 310 325 310C322.239 310 320 312.239 320 315C320 317.761 322.239 320 325 320Z" fill="#141416"/>
<path fill-rule="evenodd" clip-rule="evenodd" d="M305 300C307.761 300 310 297.761 310 295C310 292.239 307.761 290 305 290C302.239 290 300 292.239 300 295C300 297.761 302.239 300 305 300Z" fill="#141416"/>
<path fill-rule="evenodd" clip-rule="evenodd" d="M305 320C307.761 320 310 317.761 310 315C310 312.239 307.761 310 305 310C302.239 310 300 312.239 300 315C300 317.761 302.239 320 305 320Z" fill="#141416"/>
<path fill-rule="evenodd" clip-rule="evenodd" d="M305 340C307.761 340 310 337.761 310 335C310 332.239 307.761 330 305 330C302.239 330 300 332.239 300 335C300 337.761 302.239 340 305 340Z" fill="#141416"/>
<path fill-rule="evenodd" clip-rule="evenodd" d="M325 340C327.761 340 330 337.761 330 335C330 332.239 327.761 330 325 330C322.239 330 320 332.239 320 335C320 337.761 322.239 340 325 340Z" fill="#141416"/>
<path fill-rule="evenodd" clip-rule="evenodd" d="M245 180C247.761 180 250 177.761 250 175C250 172.239 247.761 170 245 170C242.239 170 240 172.239 240 175C240 177.761 242.239 180 245 180Z" fill="#141416"/>
<path fill-rule="evenodd" clip-rule="evenodd" d="M245 200C247.761 200 250 197.761 250 195C250 192.239 247.761 190 245 190C242.239 190 240 192.239 240 195C240 197.761 242.239 200 245 200Z" fill="#141416"/>
<path fill-rule="evenodd" clip-rule="evenodd" d="M225 180C227.761 180 230 177.761 230 175C230 172.239 227.761 170 225 170C222.239 170 220 172.239 220 175C220 177.761 222.239 180 225 180Z" fill="#141416"/>
<path fill-rule="evenodd" clip-rule="evenodd" d="M225 200C227.761 200 230 197.761 230 195C230 192.239 227.761 190 225 190C222.239 190 220 192.239 220 195C220 197.761 222.239 200 225 200Z" fill="#141416"/>
<path fill-rule="evenodd" clip-rule="evenodd" d="M205 220C207.761 220 210 217.761 210 215C210 212.239 207.761 210 205 210C202.239 210 200 212.239 200 215C200 217.761 202.239 220 205 220Z" fill="#141416"/>
<path fill-rule="evenodd" clip-rule="evenodd" d="M185 220C187.761 220 190 217.761 190 215C190 212.239 187.761 210 185 210C182.239 210 180 212.239 180 215C180 217.761 182.239 220 185 220Z" fill="#141416"/>
<path fill-rule="evenodd" clip-rule="evenodd" d="M185 240C187.761 240 190 237.761 190 235C190 232.239 187.761 230 185 230C182.239 230 180 232.239 180 235C180 237.761 182.239 240 185 240Z" fill="#141416"/>
<path fill-rule="evenodd" clip-rule="evenodd" d="M205 240C207.761 240 210 237.761 210 235C210 232.239 207.761 230 205 230C202.239 230 200 232.239 200 235C200 237.761 202.239 240 205 240Z" fill="#141416"/>
<path fill-rule="evenodd" clip-rule="evenodd" d="M205 260C207.761 260 210 257.761 210 255C210 252.239 207.761 250 205 250C202.239 250 200 252.239 200 255C200 257.761 202.239 260 205 260Z" fill="#141416"/>
<path fill-rule="evenodd" clip-rule="evenodd" d="M205 280C207.761 280 210 277.761 210 275C210 272.239 207.761 270 205 270C202.239 270 200 272.239 200 275C200 277.761 202.239 280 205 280Z" fill="#141416"/>
<path fill-rule="evenodd" clip-rule="evenodd" d="M185 260C187.761 260 190 257.761 190 255C190 252.239 187.761 250 185 250C182.239 250 180 252.239 180 255C180 257.761 182.239 260 185 260Z" fill="#141416"/>
<path fill-rule="evenodd" clip-rule="evenodd" d="M185 280C187.761 280 190 277.761 190 275C190 272.239 187.761 270 185 270C182.239 270 180 272.239 180 275C180 277.761 182.239 280 185 280Z" fill="#141416"/>
<path fill-rule="evenodd" clip-rule="evenodd" d="M185 300C187.761 300 190 297.761 190 295C190 292.239 187.761 290 185 290C182.239 290 180 292.239 180 295C180 297.761 182.239 300 185 300Z" fill="#141416"/>
<path fill-rule="evenodd" clip-rule="evenodd" d="M205 300C207.761 300 210 297.761 210 295C210 292.239 207.761 290 205 290C202.239 290 200 292.239 200 295C200 297.761 202.239 300 205 300Z" fill="#141416"/>
<path fill-rule="evenodd" clip-rule="evenodd" d="M205 320C207.761 320 210 317.761 210 315C210 312.239 207.761 310 205 310C202.239 310 200 312.239 200 315C200 317.761 202.239 320 205 320Z" fill="#141416"/>
<path fill-rule="evenodd" clip-rule="evenodd" d="M205 340C207.761 340 210 337.761 210 335C210 332.239 207.761 330 205 330C202.239 330 200 332.239 200 335C200 337.761 202.239 340 205 340Z" fill="#141416"/>
<path fill-rule="evenodd" clip-rule="evenodd" d="M185 320C187.761 320 190 317.761 190 315C190 312.239 187.761 310 185 310C182.239 310 180 312.239 180 315C180 317.761 182.239 320 185 320Z" fill="#141416"/>
<path fill-rule="evenodd" clip-rule="evenodd" d="M185 340C187.761 340 190 337.761 190 335C190 332.239 187.761 330 185 330C182.239 330 180 332.239 180 335C180 337.761 182.239 340 185 340Z" fill="#141416"/>
<path fill-rule="evenodd" clip-rule="evenodd" d="M245 220C247.761 220 250 217.761 250 215C250 212.239 247.761 210 245 210C242.239 210 240 212.239 240 215C240 217.761 242.239 220 245 220Z" fill="#141416"/>
<path fill-rule="evenodd" clip-rule="evenodd" d="M225 220C227.761 220 230 217.761 230 215C230 212.239 227.761 210 225 210C222.239 210 220 212.239 220 215C220 217.761 222.239 220 225 220Z" fill="#141416"/>
<path fill-rule="evenodd" clip-rule="evenodd" d="M225 240C227.761 240 230 237.761 230 235C230 232.239 227.761 230 225 230C222.239 230 220 232.239 220 235C220 237.761 222.239 240 225 240Z" fill="#141416"/>
<path fill-rule="evenodd" clip-rule="evenodd" d="M245 240C247.761 240 250 237.761 250 235C250 232.239 247.761 230 245 230C242.239 230 240 232.239 240 235C240 237.761 242.239 240 245 240Z" fill="#141416"/>
<path fill-rule="evenodd" clip-rule="evenodd" d="M245 260C247.761 260 250 257.761 250 255C250 252.239 247.761 250 245 250C242.239 250 240 252.239 240 255C240 257.761 242.239 260 245 260Z" fill="#141416"/>
<path fill-rule="evenodd" clip-rule="evenodd" d="M245 280C247.761 280 250 277.761 250 275C250 272.239 247.761 270 245 270C242.239 270 240 272.239 240 275C240 277.761 242.239 280 245 280Z" fill="#141416"/>
<path fill-rule="evenodd" clip-rule="evenodd" d="M225 260C227.761 260 230 257.761 230 255C230 252.239 227.761 250 225 250C222.239 250 220 252.239 220 255C220 257.761 222.239 260 225 260Z" fill="#141416"/>
<path fill-rule="evenodd" clip-rule="evenodd" d="M225 280C227.761 280 230 277.761 230 275C230 272.239 227.761 270 225 270C222.239 270 220 272.239 220 275C220 277.761 222.239 280 225 280Z" fill="#141416"/>
<path fill-rule="evenodd" clip-rule="evenodd" d="M225 300C227.761 300 230 297.761 230 295C230 292.239 227.761 290 225 290C222.239 290 220 292.239 220 295C220 297.761 222.239 300 225 300Z" fill="#141416"/>
<path fill-rule="evenodd" clip-rule="evenodd" d="M245 300C247.761 300 250 297.761 250 295C250 292.239 247.761 290 245 290C242.239 290 240 292.239 240 295C240 297.761 242.239 300 245 300Z" fill="#141416"/>
<path fill-rule="evenodd" clip-rule="evenodd" d="M245 320C247.761 320 250 317.761 250 315C250 312.239 247.761 310 245 310C242.239 310 240 312.239 240 315C240 317.761 242.239 320 245 320Z" fill="#141416"/>
<path fill-rule="evenodd" clip-rule="evenodd" d="M245 340C247.761 340 250 337.761 250 335C250 332.239 247.761 330 245 330C242.239 330 240 332.239 240 335C240 337.761 242.239 340 245 340Z" fill="#141416"/>
<path fill-rule="evenodd" clip-rule="evenodd" d="M225 320C227.761 320 230 317.761 230 315C230 312.239 227.761 310 225 310C222.239 310 220 312.239 220 315C220 317.761 222.239 320 225 320Z" fill="#141416"/>
<path fill-rule="evenodd" clip-rule="evenodd" d="M225 340C227.761 340 230 337.761 230 335C230 332.239 227.761 330 225 330C222.239 330 220 332.239 220 335C220 337.761 222.239 340 225 340Z" fill="#141416"/>
</g>
<g opacity="0.4">
<path fill-rule="evenodd" clip-rule="evenodd" d="M105 10C107.761 10 110 7.76142 110 5C110 2.23858 107.761 0 105 0C102.239 0 100 2.23858 100 5C100 7.76142 102.239 10 105 10Z" fill="#141416"/>
<path fill-rule="evenodd" clip-rule="evenodd" d="M105 30C107.761 30 110 27.7614 110 25C110 22.2386 107.761 20 105 20C102.239 20 100 22.2386 100 25C100 27.7614 102.239 30 105 30Z" fill="#141416"/>
<path fill-rule="evenodd" clip-rule="evenodd" d="M85 10C87.7614 10 90 7.76142 90 5C90 2.23858 87.7614 0 85 0C82.2386 0 80 2.23858 80 5C80 7.76142 82.2386 10 85 10Z" fill="#141416"/>
<path fill-rule="evenodd" clip-rule="evenodd" d="M85 30C87.7614 30 90 27.7614 90 25C90 22.2386 87.7614 20 85 20C82.2386 20 80 22.2386 80 25C80 27.7614 82.2386 30 85 30Z" fill="#141416"/>
<path fill-rule="evenodd" clip-rule="evenodd" d="M85 50C87.7614 50 90 47.7614 90 45C90 42.2386 87.7614 40 85 40C82.2386 40 80 42.2386 80 45C80 47.7614 82.2386 50 85 50Z" fill="#141416"/>
<path fill-rule="evenodd" clip-rule="evenodd" d="M105 50C107.761 50 110 47.7614 110 45C110 42.2386 107.761 40 105 40C102.239 40 100 42.2386 100 45C100 47.7614 102.239 50 105 50Z" fill="#141416"/>
<path fill-rule="evenodd" clip-rule="evenodd" d="M105 70C107.761 70 110 67.7614 110 65C110 62.2386 107.761 60 105 60C102.239 60 100 62.2386 100 65C100 67.7614 102.239 70 105 70Z" fill="#141416"/>
<path fill-rule="evenodd" clip-rule="evenodd" d="M105 90C107.761 90 110 87.7614 110 85C110 82.2386 107.761 80 105 80C102.239 80 100 82.2386 100 85C100 87.7614 102.239 90 105 90Z" fill="#141416"/>
<path fill-rule="evenodd" clip-rule="evenodd" d="M85 70C87.7614 70 90 67.7614 90 65C90 62.2386 87.7614 60 85 60C82.2386 60 80 62.2386 80 65C80 67.7614 82.2386 70 85 70Z" fill="#141416"/>
<path fill-rule="evenodd" clip-rule="evenodd" d="M85 90C87.7614 90 90 87.7614 90 85C90 82.2386 87.7614 80 85 80C82.2386 80 80 82.2386 80 85C80 87.7614 82.2386 90 85 90Z" fill="#141416"/>
<path fill-rule="evenodd" clip-rule="evenodd" d="M85 110C87.7614 110 90 107.761 90 105C90 102.239 87.7614 100 85 100C82.2386 100 80 102.239 80 105C80 107.761 82.2386 110 85 110Z" fill="#141416"/>
<path fill-rule="evenodd" clip-rule="evenodd" d="M105 110C107.761 110 110 107.761 110 105C110 102.239 107.761 100 105 100C102.239 100 100 102.239 100 105C100 107.761 102.239 110 105 110Z" fill="#141416"/>
<path fill-rule="evenodd" clip-rule="evenodd" d="M105 130C107.761 130 110 127.761 110 125C110 122.239 107.761 120 105 120C102.239 120 100 122.239 100 125C100 127.761 102.239 130 105 130Z" fill="#141416"/>
<path fill-rule="evenodd" clip-rule="evenodd" d="M105 150C107.761 150 110 147.761 110 145C110 142.239 107.761 140 105 140C102.239 140 100 142.239 100 145C100 147.761 102.239 150 105 150Z" fill="#141416"/>
<path fill-rule="evenodd" clip-rule="evenodd" d="M85 130C87.7614 130 90 127.761 90 125C90 122.239 87.7614 120 85 120C82.2386 120 80 122.239 80 125C80 127.761 82.2386 130 85 130Z" fill="#141416"/>
<path fill-rule="evenodd" clip-rule="evenodd" d="M85 150C87.7614 150 90 147.761 90 145C90 142.239 87.7614 140 85 140C82.2386 140 80 142.239 80 145C80 147.761 82.2386 150 85 150Z" fill="#141416"/>
<path fill-rule="evenodd" clip-rule="evenodd" d="M85 170C87.7614 170 90 167.761 90 165C90 162.239 87.7614 160 85 160C82.2386 160 80 162.239 80 165C80 167.761 82.2386 170 85 170Z" fill="#141416"/>
<path fill-rule="evenodd" clip-rule="evenodd" d="M105 170C107.761 170 110 167.761 110 165C110 162.239 107.761 160 105 160C102.239 160 100 162.239 100 165C100 167.761 102.239 170 105 170Z" fill="#141416"/>
<path fill-rule="evenodd" clip-rule="evenodd" d="M25 10C27.7614 10 30 7.76142 30 5C30 2.23858 27.7614 0 25 0C22.2386 0 20 2.23858 20 5C20 7.76142 22.2386 10 25 10Z" fill="#141416"/>
<path fill-rule="evenodd" clip-rule="evenodd" d="M25 30C27.7614 30 30 27.7614 30 25C30 22.2386 27.7614 20 25 20C22.2386 20 20 22.2386 20 25C20 27.7614 22.2386 30 25 30Z" fill="#141416"/>
<path fill-rule="evenodd" clip-rule="evenodd" d="M5 10C7.76142 10 10 7.76142 10 5C10 2.23858 7.76142 0 5 0C2.23858 0 0 2.23858 0 5C0 7.76142 2.23858 10 5 10Z" fill="#141416"/>
<path fill-rule="evenodd" clip-rule="evenodd" d="M5 30C7.76142 30 10 27.7614 10 25C10 22.2386 7.76142 20 5 20C2.23858 20 0 22.2386 0 25C0 27.7614 2.23858 30 5 30Z" fill="#141416"/>
<path fill-rule="evenodd" clip-rule="evenodd" d="M145 10C147.761 10 150 7.76142 150 5C150 2.23858 147.761 0 145 0C142.239 0 140 2.23858 140 5C140 7.76142 142.239 10 145 10Z" fill="#141416"/>
<path fill-rule="evenodd" clip-rule="evenodd" d="M145 30C147.761 30 150 27.7614 150 25C150 22.2386 147.761 20 145 20C142.239 20 140 22.2386 140 25C140 27.7614 142.239 30 145 30Z" fill="#141416"/>
<path fill-rule="evenodd" clip-rule="evenodd" d="M125 10C127.761 10 130 7.76142 130 5C130 2.23858 127.761 0 125 0C122.239 0 120 2.23858 120 5C120 7.76142 122.239 10 125 10Z" fill="#141416"/>
<path fill-rule="evenodd" clip-rule="evenodd" d="M125 30C127.761 30 130 27.7614 130 25C130 22.2386 127.761 20 125 20C122.239 20 120 22.2386 120 25C120 27.7614 122.239 30 125 30Z" fill="#141416"/>
<path fill-rule="evenodd" clip-rule="evenodd" d="M125 50C127.761 50 130 47.7614 130 45C130 42.2386 127.761 40 125 40C122.239 40 120 42.2386 120 45C120 47.7614 122.239 50 125 50Z" fill="#141416"/>
<path fill-rule="evenodd" clip-rule="evenodd" d="M145 50C147.761 50 150 47.7614 150 45C150 42.2386 147.761 40 145 40C142.239 40 140 42.2386 140 45C140 47.7614 142.239 50 145 50Z" fill="#141416"/>
<path fill-rule="evenodd" clip-rule="evenodd" d="M145 70C147.761 70 150 67.7614 150 65C150 62.2386 147.761 60 145 60C142.239 60 140 62.2386 140 65C140 67.7614 142.239 70 145 70Z" fill="#141416"/>
<path fill-rule="evenodd" clip-rule="evenodd" d="M145 90C147.761 90 150 87.7614 150 85C150 82.2386 147.761 80 145 80C142.239 80 140 82.2386 140 85C140 87.7614 142.239 90 145 90Z" fill="#141416"/>
<path fill-rule="evenodd" clip-rule="evenodd" d="M125 70C127.761 70 130 67.7614 130 65C130 62.2386 127.761 60 125 60C122.239 60 120 62.2386 120 65C120 67.7614 122.239 70 125 70Z" fill="#141416"/>
<path fill-rule="evenodd" clip-rule="evenodd" d="M125 90C127.761 90 130 87.7614 130 85C130 82.2386 127.761 80 125 80C122.239 80 120 82.2386 120 85C120 87.7614 122.239 90 125 90Z" fill="#141416"/>
<path fill-rule="evenodd" clip-rule="evenodd" d="M125 110C127.761 110 130 107.761 130 105C130 102.239 127.761 100 125 100C122.239 100 120 102.239 120 105C120 107.761 122.239 110 125 110Z" fill="#141416"/>
<path fill-rule="evenodd" clip-rule="evenodd" d="M145 110C147.761 110 150 107.761 150 105C150 102.239 147.761 100 145 100C142.239 100 140 102.239 140 105C140 107.761 142.239 110 145 110Z" fill="#141416"/>
<path fill-rule="evenodd" clip-rule="evenodd" d="M145 130C147.761 130 150 127.761 150 125C150 122.239 147.761 120 145 120C142.239 120 140 122.239 140 125C140 127.761 142.239 130 145 130Z" fill="#141416"/>
<path fill-rule="evenodd" clip-rule="evenodd" d="M145 150C147.761 150 150 147.761 150 145C150 142.239 147.761 140 145 140C142.239 140 140 142.239 140 145C140 147.761 142.239 150 145 150Z" fill="#141416"/>
<path fill-rule="evenodd" clip-rule="evenodd" d="M125 130C127.761 130 130 127.761 130 125C130 122.239 127.761 120 125 120C122.239 120 120 122.239 120 125C120 127.761 122.239 130 125 130Z" fill="#141416"/>
<path fill-rule="evenodd" clip-rule="evenodd" d="M125 150C127.761 150 130 147.761 130 145C130 142.239 127.761 140 125 140C122.239 140 120 142.239 120 145C120 147.761 122.239 150 125 150Z" fill="#141416"/>
<path fill-rule="evenodd" clip-rule="evenodd" d="M125 170C127.761 170 130 167.761 130 165C130 162.239 127.761 160 125 160C122.239 160 120 162.239 120 165C120 167.761 122.239 170 125 170Z" fill="#141416"/>
<path fill-rule="evenodd" clip-rule="evenodd" d="M145 170C147.761 170 150 167.761 150 165C150 162.239 147.761 160 145 160C142.239 160 140 162.239 140 165C140 167.761 142.239 170 145 170Z" fill="#141416"/>
<path fill-rule="evenodd" clip-rule="evenodd" d="M65 10C67.7614 10 70 7.76142 70 5C70 2.23858 67.7614 0 65 0C62.2386 0 60 2.23858 60 5C60 7.76142 62.2386 10 65 10Z" fill="#141416"/>
<path fill-rule="evenodd" clip-rule="evenodd" d="M65 30C67.7614 30 70 27.7614 70 25C70 22.2386 67.7614 20 65 20C62.2386 20 60 22.2386 60 25C60 27.7614 62.2386 30 65 30Z" fill="#141416"/>
<path fill-rule="evenodd" clip-rule="evenodd" d="M45 10C47.7614 10 50 7.76142 50 5C50 2.23858 47.7614 0 45 0C42.2386 0 40 2.23858 40 5C40 7.76142 42.2386 10 45 10Z" fill="#141416"/>
<path fill-rule="evenodd" clip-rule="evenodd" d="M45 30C47.7614 30 50 27.7614 50 25C50 22.2386 47.7614 20 45 20C42.2386 20 40 22.2386 40 25C40 27.7614 42.2386 30 45 30Z" fill="#141416"/>
<path fill-rule="evenodd" clip-rule="evenodd" d="M25 50C27.7614 50 30 47.7614 30 45C30 42.2386 27.7614 40 25 40C22.2386 40 20 42.2386 20 45C20 47.7614 22.2386 50 25 50Z" fill="#141416"/>
<path fill-rule="evenodd" clip-rule="evenodd" d="M5 50C7.76142 50 10 47.7614 10 45C10 42.2386 7.76142 40 5 40C2.23858 40 0 42.2386 0 45C0 47.7614 2.23858 50 5 50Z" fill="#141416"/>
<path fill-rule="evenodd" clip-rule="evenodd" d="M5 70C7.76142 70 10 67.7614 10 65C10 62.2386 7.76142 60 5 60C2.23858 60 0 62.2386 0 65C0 67.7614 2.23858 70 5 70Z" fill="#141416"/>
<path fill-rule="evenodd" clip-rule="evenodd" d="M25 70C27.7614 70 30 67.7614 30 65C30 62.2386 27.7614 60 25 60C22.2386 60 20 62.2386 20 65C20 67.7614 22.2386 70 25 70Z" fill="#141416"/>
<path fill-rule="evenodd" clip-rule="evenodd" d="M25 90C27.7614 90 30 87.7614 30 85C30 82.2386 27.7614 80 25 80C22.2386 80 20 82.2386 20 85C20 87.7614 22.2386 90 25 90Z" fill="#141416"/>
<path fill-rule="evenodd" clip-rule="evenodd" d="M25 110C27.7614 110 30 107.761 30 105C30 102.239 27.7614 100 25 100C22.2386 100 20 102.239 20 105C20 107.761 22.2386 110 25 110Z" fill="#141416"/>
<path fill-rule="evenodd" clip-rule="evenodd" d="M5 90C7.76142 90 10 87.7614 10 85C10 82.2386 7.76142 80 5 80C2.23858 80 0 82.2386 0 85C0 87.7614 2.23858 90 5 90Z" fill="#141416"/>
<path fill-rule="evenodd" clip-rule="evenodd" d="M5 110C7.76142 110 10 107.761 10 105C10 102.239 7.76142 100 5 100C2.23858 100 0 102.239 0 105C0 107.761 2.23858 110 5 110Z" fill="#141416"/>
<path fill-rule="evenodd" clip-rule="evenodd" d="M5 130C7.76142 130 10 127.761 10 125C10 122.239 7.76142 120 5 120C2.23858 120 0 122.239 0 125C0 127.761 2.23858 130 5 130Z" fill="#141416"/>
<path fill-rule="evenodd" clip-rule="evenodd" d="M25 130C27.7614 130 30 127.761 30 125C30 122.239 27.7614 120 25 120C22.2386 120 20 122.239 20 125C20 127.761 22.2386 130 25 130Z" fill="#141416"/>
<path fill-rule="evenodd" clip-rule="evenodd" d="M25 150C27.7614 150 30 147.761 30 145C30 142.239 27.7614 140 25 140C22.2386 140 20 142.239 20 145C20 147.761 22.2386 150 25 150Z" fill="#141416"/>
<path fill-rule="evenodd" clip-rule="evenodd" d="M25 170C27.7614 170 30 167.761 30 165C30 162.239 27.7614 160 25 160C22.2386 160 20 162.239 20 165C20 167.761 22.2386 170 25 170Z" fill="#141416"/>
<path fill-rule="evenodd" clip-rule="evenodd" d="M5 150C7.76142 150 10 147.761 10 145C10 142.239 7.76142 140 5 140C2.23858 140 0 142.239 0 145C0 147.761 2.23858 150 5 150Z" fill="#141416"/>
<path fill-rule="evenodd" clip-rule="evenodd" d="M5 170C7.76142 170 10 167.761 10 165C10 162.239 7.76142 160 5 160C2.23858 160 0 162.239 0 165C0 167.761 2.23858 170 5 170Z" fill="#141416"/>
<path fill-rule="evenodd" clip-rule="evenodd" d="M65 50C67.7614 50 70 47.7614 70 45C70 42.2386 67.7614 40 65 40C62.2386 40 60 42.2386 60 45C60 47.7614 62.2386 50 65 50Z" fill="#141416"/>
<path fill-rule="evenodd" clip-rule="evenodd" d="M45 50C47.7614 50 50 47.7614 50 45C50 42.2386 47.7614 40 45 40C42.2386 40 40 42.2386 40 45C40 47.7614 42.2386 50 45 50Z" fill="#141416"/>
<path fill-rule="evenodd" clip-rule="evenodd" d="M45 70C47.7614 70 50 67.7614 50 65C50 62.2386 47.7614 60 45 60C42.2386 60 40 62.2386 40 65C40 67.7614 42.2386 70 45 70Z" fill="#141416"/>
<path fill-rule="evenodd" clip-rule="evenodd" d="M65 70C67.7614 70 70 67.7614 70 65C70 62.2386 67.7614 60 65 60C62.2386 60 60 62.2386 60 65C60 67.7614 62.2386 70 65 70Z" fill="#141416"/>
<path fill-rule="evenodd" clip-rule="evenodd" d="M65 90C67.7614 90 70 87.7614 70 85C70 82.2386 67.7614 80 65 80C62.2386 80 60 82.2386 60 85C60 87.7614 62.2386 90 65 90Z" fill="#141416"/>
<path fill-rule="evenodd" clip-rule="evenodd" d="M65 110C67.7614 110 70 107.761 70 105C70 102.239 67.7614 100 65 100C62.2386 100 60 102.239 60 105C60 107.761 62.2386 110 65 110Z" fill="#141416"/>
<path fill-rule="evenodd" clip-rule="evenodd" d="M45 90C47.7614 90 50 87.7614 50 85C50 82.2386 47.7614 80 45 80C42.2386 80 40 82.2386 40 85C40 87.7614 42.2386 90 45 90Z" fill="#141416"/>
<path fill-rule="evenodd" clip-rule="evenodd" d="M45 110C47.7614 110 50 107.761 50 105C50 102.239 47.7614 100 45 100C42.2386 100 40 102.239 40 105C40 107.761 42.2386 110 45 110Z" fill="#141416"/>
<path fill-rule="evenodd" clip-rule="evenodd" d="M45 130C47.7614 130 50 127.761 50 125C50 122.239 47.7614 120 45 120C42.2386 120 40 122.239 40 125C40 127.761 42.2386 130 45 130Z" fill="#141416"/>
<path fill-rule="evenodd" clip-rule="evenodd" d="M65 130C67.7614 130 70 127.761 70 125C70 122.239 67.7614 120 65 120C62.2386 120 60 122.239 60 125C60 127.761 62.2386 130 65 130Z" fill="#141416"/>
<path fill-rule="evenodd" clip-rule="evenodd" d="M65 150C67.7614 150 70 147.761 70 145C70 142.239 67.7614 140 65 140C62.2386 140 60 142.239 60 145C60 147.761 62.2386 150 65 150Z" fill="#141416"/>
<path fill-rule="evenodd" clip-rule="evenodd" d="M65 170C67.7614 170 70 167.761 70 165C70 162.239 67.7614 160 65 160C62.2386 160 60 162.239 60 165C60 167.761 62.2386 170 65 170Z" fill="#141416"/>
<path fill-rule="evenodd" clip-rule="evenodd" d="M45 150C47.7614 150 50 147.761 50 145C50 142.239 47.7614 140 45 140C42.2386 140 40 142.239 40 145C40 147.761 42.2386 150 45 150Z" fill="#141416"/>
<path fill-rule="evenodd" clip-rule="evenodd" d="M45 170C47.7614 170 50 167.761 50 165C50 162.239 47.7614 160 45 160C42.2386 160 40 162.239 40 165C40 167.761 42.2386 170 45 170Z" fill="#141416"/>
</g>
</svg>
