<svg width="152" height="24" viewBox="0 0 152 24" fill="none" xmlns="http://www.w3.org/2000/svg">
<path fill-rule="evenodd" clip-rule="evenodd" d="M12 18L6.74005 20.7653C6.00642 21.151 5.14899 20.528 5.2891 19.7111L6.29366 13.8541L2.03827 9.70612C1.44476 9.12759 1.77226 8.11961 2.59248 8.00043L8.47329 7.1459L11.1033 1.81699C11.4701 1.07374 12.5299 1.07374 12.8967 1.81699L15.5267 7.1459L21.4075 8.00043C22.2277 8.11961 22.5552 9.12759 21.9617 9.70612L17.7063 13.8541L18.7109 19.7111C18.851 20.528 17.9936 21.151 17.26 20.7653L12 18Z" fill="#FF6641"/>
<path fill-rule="evenodd" clip-rule="evenodd" d="M44 18L38.7401 20.7653C38.0064 21.151 37.149 20.528 37.2891 19.7111L38.2937 13.8541L34.0383 9.70612C33.4448 9.12759 33.7723 8.11961 34.5925 8.00043L40.4733 7.1459L43.1033 1.81699C43.4701 1.07374 44.5299 1.07374 44.8967 1.81699L47.5267 7.1459L53.4075 8.00043C54.2277 8.11961 54.5552 9.12759 53.9617 9.70612L49.7063 13.8541L50.7109 19.7111C50.851 20.528 49.9936 21.151 49.26 20.7653L44 18Z" fill="#FF6641"/>
<path fill-rule="evenodd" clip-rule="evenodd" d="M76 18L70.7401 20.7653C70.0064 21.151 69.149 20.528 69.2891 19.7111L70.2937 13.8541L66.0383 9.70612C65.4448 9.12759 65.7723 8.11961 66.5925 8.00043L72.4733 7.1459L75.1033 1.81699C75.4701 1.07374 76.5299 1.07374 76.8967 1.81699L79.5267 7.1459L85.4075 8.00043C86.2277 8.11961 86.5552 9.12759 85.9617 9.70612L81.7063 13.8541L82.7109 19.7111C82.851 20.528 81.9936 21.151 81.26 20.7653L76 18Z" fill="#FF6641"/>
<path fill-rule="evenodd" clip-rule="evenodd" d="M108 18L102.74 20.7653C102.006 21.151 101.149 20.528 101.289 19.7111L102.294 13.8541L98.0383 9.70612C97.4448 9.12759 97.7723 8.11961 98.5925 8.00043L104.473 7.1459L107.103 1.81699C107.47 1.07374 108.53 1.07374 108.897 1.81699L111.527 7.1459L117.408 8.00043C118.228 8.11961 118.555 9.12759 117.962 9.70612L113.706 13.8541L114.711 19.7111C114.851 20.528 113.994 21.151 113.26 20.7653L108 18Z" fill="#FF6641"/>
<path fill-rule="evenodd" clip-rule="evenodd" d="M140 18L134.74 20.7653C134.006 21.151 133.149 20.528 133.289 19.7111L134.294 13.8541L130.038 9.70612C129.445 9.12759 129.772 8.11961 130.592 8.00043L136.473 7.1459L139.103 1.81699C139.47 1.07374 140.53 1.07374 140.897 1.81699L143.527 7.1459L149.408 8.00043C150.228 8.11961 150.555 9.12759 149.962 9.70612L145.706 13.8541L146.711 19.7111C146.851 20.528 145.994 21.151 145.26 20.7653L140 18Z" fill="#FF6641"/>
</svg>
